<mxfile host="app.diagrams.net" agent="Mozilla/5.0 (Windows NT 10.0; Win64; x64) AppleWebKit/537.36 (KHTML, like Gecko) Chrome/136.0.0.0 Safari/537.36" version="27.0.5">
  <diagram name="Page-1" id="DH40OpRP9k-7PUG0WMsj">
    <mxGraphModel dx="1106" dy="598" grid="1" gridSize="10" guides="1" tooltips="1" connect="1" arrows="1" fold="1" page="1" pageScale="1" pageWidth="850" pageHeight="1100" math="0" shadow="0">
      <root>
        <mxCell id="0" />
        <mxCell id="1" parent="0" />
        <mxCell id="ttnMdp6Yhw6-EbgYacKO-1" value="Centro de datos&lt;div&gt;&lt;br&gt;&lt;/div&gt;&lt;div&gt;&lt;br&gt;&lt;/div&gt;&lt;div&gt;&lt;br&gt;&lt;/div&gt;&lt;div&gt;&lt;br&gt;&lt;/div&gt;&lt;div&gt;&lt;br&gt;&lt;/div&gt;&lt;div&gt;&lt;br&gt;&lt;/div&gt;&lt;div&gt;&lt;br&gt;&lt;/div&gt;&lt;div&gt;&lt;br&gt;&lt;/div&gt;&lt;div&gt;&lt;br&gt;&lt;/div&gt;&lt;div&gt;&lt;br&gt;&lt;/div&gt;&lt;div&gt;&lt;br&gt;&lt;/div&gt;&lt;div&gt;&lt;br&gt;&lt;/div&gt;&lt;div&gt;&lt;br&gt;&lt;/div&gt;&lt;div&gt;&lt;br&gt;&lt;/div&gt;&lt;div&gt;&lt;br&gt;&lt;/div&gt;&lt;div&gt;&lt;br&gt;&lt;/div&gt;&lt;div&gt;&lt;br&gt;&lt;/div&gt;&lt;div&gt;&lt;br&gt;&lt;/div&gt;&lt;div&gt;&lt;br&gt;&lt;/div&gt;&lt;div&gt;&lt;br&gt;&lt;/div&gt;&lt;div&gt;&lt;br&gt;&lt;/div&gt;" style="whiteSpace=wrap;html=1;aspect=fixed;" parent="1" vertex="1">
          <mxGeometry x="280" y="120" width="330" height="330" as="geometry" />
        </mxCell>
        <mxCell id="ttnMdp6Yhw6-EbgYacKO-3" style="edgeStyle=orthogonalEdgeStyle;rounded=0;orthogonalLoop=1;jettySize=auto;html=1;exitX=1;exitY=0.5;exitDx=0;exitDy=0;entryX=0;entryY=0.5;entryDx=0;entryDy=0;" parent="1" source="ttnMdp6Yhw6-EbgYacKO-2" target="ttnMdp6Yhw6-EbgYacKO-1" edge="1">
          <mxGeometry relative="1" as="geometry" />
        </mxCell>
        <mxCell id="ttnMdp6Yhw6-EbgYacKO-2" value="Punto de venta&lt;div&gt;&lt;br&gt;&lt;/div&gt;&lt;div&gt;(Recibos de papel)&lt;/div&gt;" style="whiteSpace=wrap;html=1;aspect=fixed;" parent="1" vertex="1">
          <mxGeometry x="40" y="120" width="80" height="80" as="geometry" />
        </mxCell>
        <mxCell id="ttnMdp6Yhw6-EbgYacKO-4" value="CRM" style="whiteSpace=wrap;html=1;aspect=fixed;" parent="1" vertex="1">
          <mxGeometry x="310" y="170" width="70" height="70" as="geometry" />
        </mxCell>
        <mxCell id="ttnMdp6Yhw6-EbgYacKO-5" value="ERP" style="whiteSpace=wrap;html=1;aspect=fixed;" parent="1" vertex="1">
          <mxGeometry x="410" y="170" width="70" height="70" as="geometry" />
        </mxCell>
        <mxCell id="ttnMdp6Yhw6-EbgYacKO-6" value="Inventario" style="whiteSpace=wrap;html=1;aspect=fixed;" parent="1" vertex="1">
          <mxGeometry x="510" y="170" width="70" height="70" as="geometry" />
        </mxCell>
        <mxCell id="ttnMdp6Yhw6-EbgYacKO-7" value="Gestión documentos" style="whiteSpace=wrap;html=1;aspect=fixed;" parent="1" vertex="1">
          <mxGeometry x="310" y="265" width="70" height="70" as="geometry" />
        </mxCell>
        <mxCell id="ttnMdp6Yhw6-EbgYacKO-8" value="Gestión empleados" style="whiteSpace=wrap;html=1;aspect=fixed;" parent="1" vertex="1">
          <mxGeometry x="410" y="265" width="70" height="70" as="geometry" />
        </mxCell>
        <mxCell id="ttnMdp6Yhw6-EbgYacKO-9" value="RR.HH. empleados" style="whiteSpace=wrap;html=1;aspect=fixed;" parent="1" vertex="1">
          <mxGeometry x="510" y="265" width="70" height="70" as="geometry" />
        </mxCell>
        <mxCell id="ttnMdp6Yhw6-EbgYacKO-10" value="Sitio web" style="whiteSpace=wrap;html=1;aspect=fixed;" parent="1" vertex="1">
          <mxGeometry x="310" y="360" width="70" height="70" as="geometry" />
        </mxCell>
        <mxCell id="ttnMdp6Yhw6-EbgYacKO-11" value="Contabilidad" style="whiteSpace=wrap;html=1;aspect=fixed;" parent="1" vertex="1">
          <mxGeometry x="410" y="360" width="70" height="70" as="geometry" />
        </mxCell>
        <mxCell id="biKe22StrQ6LhnsAV9dZ-1" value="" style="rounded=0;whiteSpace=wrap;html=1;" vertex="1" parent="1">
          <mxGeometry x="300" y="600" width="120" height="60" as="geometry" />
        </mxCell>
      </root>
    </mxGraphModel>
  </diagram>
</mxfile>
